<?xml version="1.0" encoding="UTF-8"?>
<svg id="Layer_2" data-name="Layer 2" xmlns="http://www.w3.org/2000/svg" xmlns:xlink="http://www.w3.org/1999/xlink" viewBox="0 0 652.41 144.94">
  <defs>
    <style>
      .cls-1 {
        fill: none;
      }

      .cls-2 {
        fill: #231f20;
      }

      .cls-3 {
        clip-path: url(#clippath);
      }
    </style>
    <clipPath id="clippath">
      <rect class="cls-1" width="652.41" height="144.94"/>
    </clipPath>
  </defs>
  <g id="Layer_1-2" data-name="Layer 1">
    <g class="cls-3">
      <path class="cls-2" d="M390.61,36.44c.2.29-2.93,5.55-3.38,6.18-1.78,2.48-2.99,3.39-6.03,3.86-2.46.39-5.1.49-7.58.82-.09-.44.21-.45.48-.6,1.8-1,4.9-1.78,6.97-2.73,1.58-.72,3.16-1.54,4.61-2.51.08-.44-.82-.39-1.12-.46-2.36-.49-5.08-.45-7.48-.23-.52.05-2.75.71-2.59,0l3.47-5.63c4.16-.57,8.78-.46,12.65,1.31"/>
      <path class="cls-2" d="M108.2,94.89c1.07.35,2.05.49,3.18.32.53-.08,2.89-.78,2.84-1.41-.77-1.37-2.57-1.11-3.83-.61-.27.11-2.45,1.4-2.19,1.69M107.77,94.47c.84-1.38,2.48-2.89,4.02-3.43,4.46-1.55,5.19,3.08,1.76,5.29-2.18,1.41-5.06,1.43-7.21-.08-.57-.4-1.17-1.25-1.8-1.5-2.68-1.07-6.12,2.62-8.21,3.94-3.26,2.05-7.7,2.9-11.52,2.84-.34,0-.95.13-1.12-.23,4.07-1.21,8.39-1.52,12.12-3.76,2.11-1.27,6.25-5.32,8.56-5.12,1.55.14,1.94,1.79,3.41,2.03"/>
      <path class="cls-2" d="M445.62,94c-1.09.56-3.57.1-4.17-1.16-.79,2.22-3.14,3.66-5.49,2.94-.87-.27-1.77-1.15-2.68-1.33-3.17-.64-7.62,4.27-10.24,5.86-3.86,2.34-9.04,3.37-13.52,3.36-.3,0-1.15.16-1.23-.25,4.56-1.42,9.42-2.05,13.7-4.3,3.31-1.74,7.4-6.58,10.61-7.29,2.6-.57,3.09,1.82,5.9,1.38,2.2-.34,2.44-2.2,3.9-3.43-.18,1.54.26,2.25,1.83,2.49,3.3.5,1.28-1.19,1.45-2.06.04-.2.74-1.62.89-1.6,1.3.93,0,4.9-.96,5.39"/>
      <path class="cls-2" d="M29.5,31.84c1.38,1.28,1.41,2.01.66,3.69-.52.36-1.91-1.82-3.03-1.17-1.38.81-1.66,6.48-1.94,8.16-.08.45-.76,5.67-1.94,4.68-.63-3.39-1.7-6.97-3.86-9.69-.69,1.5-3.44-.15-3.77-1.38-.18-.7.82-3.08,1.24-3.18.79-.18,2.22.6,2.83,1.09,2.48,1.99,3.42,5.79,4.14,8.72.08.33-.19.58.4.48.25-2.47.52-5.14,1.05-7.56.44-2.01,1.47-6.4,4.22-3.84"/>
      <path class="cls-2" d="M284.96,31.84c1.38,1.28,1.41,2.01.66,3.69-.51.36-1.91-1.82-3.03-1.17-1.38.81-1.66,6.48-1.94,8.16-.08.45-.76,5.67-1.94,4.68-.63-3.39-1.7-6.97-3.86-9.69-.69,1.5-3.44-.15-3.77-1.38-.18-.7.82-3.08,1.24-3.18.79-.18,2.21.6,2.83,1.09,2.48,1.99,3.42,5.79,4.14,8.72.08.33-.19.58.4.48.25-2.47.52-5.14,1.05-7.56.44-2.01,1.47-6.4,4.22-3.84"/>
      <path class="cls-2" d="M434.7,35.17c-.53.36-1.82-1.74-2.9-1.24-1.48.7-1.8,7.11-2.09,8.8-.17.96-.52,3.95-1.62,4.12-.45.07-.25-.17-.33-.46-.84-3.21-1.57-6.7-3.83-9.23l-.58.72c-1.68-.29-3.79-1.35-3.02-3.34.89-2.3,1.87-2.42,3.8-.94,2.75,2.11,3.32,5.54,4.25,8.61.08.26.01.61.4.68.41-2.78.61-5.75,1.32-8.47.56-2.15,1.7-5.28,4.22-2.7,1.24,1.27,1.1,1.91.39,3.45"/>
      <path class="cls-2" d="M346.85,44.44c1.14,1.12,2.69.23,3.27-1.04.35-.76.25-1.59.71-2.25.46,2.1.03,5.72-1.89,7.01-1.65,1.11-2.7.42-3.63-1.09-2.77-4.54,1.62-11.4,2.75-16,.53.49.17,1.56.04,2.21-.48,2.54-3.33,9.12-1.26,11.17"/>
      <path class="cls-2" d="M234.69,39.18c-.24,2.07-2.26,5.76-4.75,3.96-2.26-1.63-2.03-6.01-1.23-8.37l3.12-8.75c.67,3.4-3.76,10.4-1.29,13.3.32.37.8.56,1.29.57,1.77.02,2.14-1.97,2.47-3.3.08-.33-.2-.58.4-.48-.08.98.11,2.11,0,3.07"/>
      <path d="M137.34,39.65l6.08-6.54c-1.31-2.15-4.7-5.16-7.39-6.47l-5.62,6.89v.5c2.16.92,5.62,3.89,6.93,5.62"/>
      <path d="M177.68,35.34l6.08-6.54c-1.31-2.15-4.7-5.16-7.39-6.47l-5.62,6.89v.5c2.16.92,5.62,3.89,6.93,5.62"/>
      <path d="M127.56,70.18c-5,0-8.93-.54-11.86-1.62,5.5-7.16,14.32-12.17,20.94-12.17,7.78,0,11.78,5.85,11.78,8.7,0,3.2-8.85,5.08-20.87,5.08M160.66,61.17h.46c1.85-3.43,4.62-5,8.39-5,6.31,0,13.74,4.39,26.33,6.66v.46c-7.47,2.31-12.7,6.89-38.81,6.89h-.5c-3.54,0-6.31-.15-8.01-.58,1.19-2.81,1.85-6.01,1.85-9.51,0-8.24-4.2-13.74-11.2-13.74-7.58,0-14.28,5.81-24.29,21.9-3.89-1.65-5.85-4.39-6.35-8.24h-.85c-1.73,7.93-5.5,10.16-13.51,10.16h-54.18c-5,0-9.08-2.93-12.47-14.4h-.46c-1.23,3.73-3.31,8.32-4.58,10.05,3.04,7.7,5.89,12.13,8.7,14.59C28.1,86.39,12.7,95.86,0,98.44v.46c3.85,1.27,8.51,5,14.4,5,8.74,0,16.32-8.12,17.98-22.56,1.83,1.26,3.66,1.72,5.49,1.73,0,0,0,0,.01,0h54.22c6.72-.01,11.86-3.6,13.13-11.78h.46c.81,7.28,6.89,11.78,19.75,11.78,10.09,0,17.94-4.2,21.94-11.2,0,8.16,3.01,11.17,7.52,11.2,0,0,.01,0,.02,0,0,0,.02,0,.03,0,0,0,0,0,.01,0h0c28.1-.02,31.69-18.52,46.04-18.94,1.27-2.5,4.24-6.66,5.66-7.97v-.46c-13.74-.54-26.68-9.16-35.03-9.16-4.66,0-7.82,2.39-10.97,14.63"/>
      <path d="M214.96,12.05c-4.16,0-6.16-1.85-6.16-3.35s2.43-4.35,6.54-4.35c2.35,0,3.66.92,3.93,2.81h.46c.08-.46.23-1.19.23-2.16C219.96,2.27,218.19,0,215.38,0c-4.16,0-7.85,5.43-7.85,10.86,0,2.54,1.58,4.62,4.66,5.47-2.43,1.46-4.27,3.77-5.12,6.55h.46c3.04-2.73,8.62-5.39,14.2-6.43.42-1.69,1.27-3.85,2.12-5.12v-.46c-1.54.54-6.08,1.19-8.89,1.19"/>
      <path d="M218.5,22.1c-2.12,3.35-5.27,7.82-8.2,10.74,1.31,6.35,4.62,39.88,4.12,51.62h.5c2.89-10.32,5-10.66,5-31.95,0-13.67-.96-26.33-.96-30.41h-.46Z"/>
      <path d="M324.91,27.41l6.08-6.54c-1.31-2.15-4.7-5.16-7.39-6.47l-5.62,6.89v.5c2.15.92,5.62,3.89,6.93,5.62"/>
      <path d="M241.25,66.37c-5.62,0-7.2-1.04-7.2-3.08,0-1.73,3.35-5.39,17.82-12.55.5,3.7.89,7.74.89,10.43,0,3.39-5,5.2-11.51,5.2M324.45,53.78c-7.93,0-10.32-2.96-10.32-4.31,0-2.46,4.39-6.31,9.93-6.31s9.89,3.04,12.28,8.16c-3.16,1.5-6.97,2.46-11.9,2.46M325.76,34.34c-8.55,0-13.24,8.93-13.24,19.33,0,6.43,3.62,10.55,10.66,10.55,8.01,0,12.78-4.35,13.32-11.36l.42-.12c1.04,2.85,1.5,6.28,1.19,10.09,0,2.73-6.24,7.35-26.02,7.35h-2.58c-8.35,0-10.97-3.16-10.97-8.43v-4.43h-.85c-1.73,10.35-4.2,12.86-19.44,12.86h-8.98c-6.35,0-9.78-3.39-9.78-11.17,0-15.51-.89-20.98-1.27-24.44h-.31c-2.08,3.35-5.27,6.74-7.39,8.39.23.96.5,2.35.77,3.93-16.86,10.51-20.98,15.98-20.98,23.48,0,5.39,3.19,8.51,9.66,8.51,8.35,0,12.2-4.5,13.2-14.47h.46c.46,13.98,5.14,18.65,13.49,18.67,0,0,0,0,.02,0h9.1c13.35-.03,19.17-4.46,19.48-15.63h.5c-1.31,12.4,4.54,15.63,11.2,15.63h2.58c21.21,0,29.57-6.74,29.57-22.83,0-17.13-5.12-25.91-13.82-25.91"/>
      <path d="M374.71,89.62l-5.66,6.93v.46c2.27.96,5.58,3.97,6.97,5.66l6.08-6.54c-1.31-2.19-4.7-5.24-7.39-6.51"/>
      <path d="M480.85,47.77h-.46c-1.23,3.81-3.35,8.01-5,10.47,6.77,5.35,8.55,7.82,8.55,9.12,0,1.23-3.97,2.81-8.62,2.81-3.85,0-6.89-.92-8.47-2.39.42-2.89,1-7.08,1.08-7.78h-.92c-1.31,7.66-4.2,10.16-11.2,10.16-3.5,0-6.08-.77-7.66-2.08.42-2.85,1.04-7.35,1.12-8.09h-.89c-1.77,8.05-5.43,10.16-13.44,10.16h-32.64c-8.35,0-10.97-3.16-10.97-8.43v-4.43h-.85c-1.73,10.36-4.2,12.86-19.44,12.86-5,0-9.09-2.93-12.47-14.4h-.46c-1.23,3.73-3.31,8.31-4.58,10.05,3.04,7.7,5.89,12.13,8.7,14.59-3.08,5.97-13.26,15.44-25.96,18.02v.46c3.85,1.27,3.29,5,9.18,5,8.74,0,16.32-8.12,17.98-22.56,1.83,1.26,3.66,1.72,5.49,1.73h.05c13.41,0,19.25-4.44,19.56-15.63h.5c-1.31,12.36,4.51,15.61,11.15,15.63h32.7c7.33-.01,11.86-3.55,13.28-11.32h.46c-1.08,7.74,2.12,11.32,7.54,11.32s10.05-3.54,11.09-11.32h.46c-.77,7.7,2.5,11.32,8.74,11.32,7.24,0,10.97-6.16,10.97-16.67,0-9.47-3.27-15.55-4.54-18.63"/>
      <path d="M468.84,33.07c-1-1.35-3.89-3.96-6.58-5.24l-4.81,6.08v.46c2.16.92,5.24,3.5,6.54,4.81l4.85-6.12Z"/>
      <path d="M464.03,44.04c-1-1.35-3.89-3.96-6.58-5.24l-4.81,6.08v.46c2.16.92,5.24,3.5,6.54,4.81l4.85-6.12Z"/>
      <path d="M473.95,44.04c-1-1.35-3.89-3.96-6.58-5.24l-4.81,6.08v.46c2.16.92,5.24,3.5,6.54,4.81l4.85-6.12Z"/>
      <path d="M507.04,73.26h-.46c.08,7.39-1.58,14.24-4.5,19.09-3.77,7.66-10.47,12.05-21.64,12.05-12.09,0-19.02-7.31-19.02-20.21,0-6.31,1.35-13.01,4.43-19.75h.89c-1.81,4.85-2.39,9.28-2.39,12.7,0,9.16,6.58,14.32,17.4,14.32,11.43,0,21.98-4.89,21.98-11.74-.31-14.4-3.35-45.74-4.5-51.47,2.89-2.93,6.27-7.51,8.32-10.86h.5c0,32.92.19,38.27.19,42.04,0,7.51,3.12,10.74,10.36,10.74l-2.08,12.9c-5.58,0-9.35-3.16-9.47-9.82"/>
      <path d="M652.41,63.4c0,14.47-9.35,19.67-26.22,19.67h-109.69c-1.35,0-2.19-1.27-2.19-4.2,0-5.81,1.66-8.7,4.31-8.7h108.03c17.13,0,24.1-1.65,24.1-3.81,0-2.39-4.7-7.43-12.63-7.43-7.35,0-65.08.92-89.41.92-13.74,0-17.79-2.58-17.79-8.39s2.54-10.55,6.43-12.36c20.02-9.05,28.06-12.55,31.14-15.24h.46c-1.31,5.47-.04,10.09-7.7,13.55-7.12,3.23-19.36,6.85-28.18,9.7-.08,2.58,3.89,3.93,16.52,3.93,24.33,0,82.05-.96,89.41-.96s13.4,6.31,13.4,13.32"/>
      <path class="cls-2" d="M93.21,132.4v-.7c0-1.21-1.19-2.23-2.6-2.23h-10.25v5.17h10.25c1.41,0,2.6-1.03,2.6-2.24M98.28,144.57h-4.9l-5.03-6.52h-7.99v6.52h-3.99v-18.52h14.24c3.68,0,6.68,2.67,6.68,5.95v.26c0,2.47-1.79,4.7-4.35,5.57l5.33,6.74Z"/>
      <path d="M80.51,134.48h10.1c1.33,0,2.45-.95,2.45-2.09v-.7c0-1.13-1.12-2.08-2.45-2.08h-10.1v4.87ZM90.61,134.79h-10.41v-5.48h10.41c1.49,0,2.75,1.09,2.75,2.39v.7c0,1.3-1.26,2.39-2.75,2.39M93.46,144.42h4.51l-5.27-6.67.21-.07c2.54-.86,4.24-3.04,4.24-5.42v-.26c0-3.2-2.93-5.8-6.53-5.8h-14.08v18.22s3.68,0,3.68,0v-6.52h8.22l5.03,6.52ZM98.6,144.72h-5.29l-5.03-6.52h-7.76v6.52h-4.29v-18.83h14.39c3.77,0,6.84,2.74,6.84,6.1v.26c0,2.45-1.7,4.69-4.25,5.64l5.4,6.82Z"/>
    </g>
  </g>
</svg>