<?xml version="1.0" encoding="UTF-8"?>
<svg id="Layer_2" data-name="Layer 2" xmlns="http://www.w3.org/2000/svg" xmlns:xlink="http://www.w3.org/1999/xlink" viewBox="0 0 1367.41 235.26">
  <defs>
    <style>
      .cls-1 {
        fill: none;
      }

      .cls-2 {
        fill: #231f20;
      }

      .cls-3 {
        clip-path: url(#clippath);
      }
    </style>
    <clipPath id="clippath">
      <rect class="cls-1" width="1367.41" height="235.26"/>
    </clipPath>
  </defs>
  <g id="Layer_1-2" data-name="Layer 1">
    <g class="cls-3">
      <path class="cls-2" d="M688.43,0c-44.56,0-55.05,64.85-83.12,89.04-3.67,3.16-12.63,9.05-17.33,10.52-.79.24,6.5,9.49,6.5,9.49V19.69S595.77,0,580.68,0c-46.74,0-58.53,98.12-92.7,98.12S439.62-20.93,383.94,3.24c-9.1,3.95-5.26,48.18,0,46.17,54.98-20.95,68.48,94.31,104.04,94.88,34,.55,45.13-97.32,92.74-97.32v82.19c0,9.57,6.19,15.13,11.76,15.13,37.08,0,46.17-96.14,95.95-97.92C695.77,46.11,695.07,0,688.43,0"/>
      <path class="cls-2" d="M98.93,2.39H6.5C2.91,2.39,0,5.3,0,8.9v126.51c0,3.59,2.91,6.5,6.5,6.5h19.28c3.59,0,6.5-2.91,6.5-6.5v-44.32h58.07c3.59,0,6.5-2.91,6.5-6.51v-12.9c0-3.59-2.91-6.5-6.5-6.5h-58.07V28.3h66.64c3.59,0,6.5-2.91,6.5-6.5v-12.91c0-3.59-2.91-6.5-6.5-6.5"/>
      <path class="cls-2" d="M216.6,115.6h-63.45V8.9c0-3.59-2.91-6.5-6.5-6.5h-19.28c-3.59,0-6.5,2.91-6.5,6.5v126.51c0,3.59,2.91,6.5,6.5,6.5h89.24c3.59,0,6.5-2.91,6.5-6.5v-13.3c0-3.59-2.91-6.5-6.5-6.5"/>
      <path class="cls-2" d="M334.36,90.29c-2.19,5.45-5.28,10.17-9.27,14.15-3.98,3.98-8.6,7.04-13.85,9.17-5.25,2.13-11,3.19-17.24,3.19s-12.03-1.06-17.34-3.19c-5.32-2.12-9.94-5.18-13.85-9.17-3.92-3.99-6.98-8.74-9.17-14.25-2.2-5.51-3.29-11.53-3.29-18.04s1.1-12.68,3.29-18.13c2.19-5.45,5.28-10.17,9.27-14.15,3.98-3.98,8.6-7.04,13.85-9.17,5.25-2.13,10.99-3.19,17.24-3.19s12.02,1.06,17.34,3.19c5.31,2.12,9.93,5.18,13.85,9.17,3.92,3.99,6.97,8.71,9.17,14.15,2.19,5.45,3.29,11.49,3.29,18.13s-1.1,12.69-3.29,18.14M348.51,20.53c-6.85-6.51-14.88-11.56-24.12-15.15C315.16,1.79,305.03,0,294,0s-21,1.79-30.29,5.38c-9.31,3.58-17.41,8.64-24.32,15.15-6.91,6.51-12.26,14.15-16.05,22.92-3.79,8.77-5.68,18.33-5.68,28.7s1.89,19.93,5.68,28.7c3.79,8.77,9.1,16.41,15.94,22.92,6.84,6.51,14.95,11.56,24.32,15.15,9.37,3.59,19.56,5.38,30.59,5.38s20.96-1.79,30.2-5.38c9.24-3.59,17.27-8.6,24.12-15.05,6.84-6.45,12.19-14.08,16.05-22.92,3.85-8.84,5.78-18.44,5.78-28.8s-1.93-20.09-5.78-28.8c-3.86-8.7-9.2-16.31-16.05-22.82"/>
      <path class="cls-2" d="M848.89,70.75c-4.92,4.26-12.36,6.38-22.32,6.38h-42.36V28.7h42.36c9.96,0,17.4,2.13,22.32,6.38,4.92,4.25,7.37,10.23,7.37,17.94s-2.46,13.49-7.37,17.74M860.65,8.47c-9.04-4.05-19.8-6.08-32.29-6.08h-69.94c-3.59,0-6.5,2.91-6.5,6.5v126.51c0,3.59,2.91,6.5,6.5,6.5h19.28c3.59,0,6.5-2.91,6.5-6.5v-31.96h44.15c12.49,0,23.25-2.03,32.29-6.08,9.04-4.05,16.01-9.86,20.93-17.44,4.92-7.58,7.38-16.54,7.38-26.91s-2.46-19.53-7.38-27.11c-4.92-7.57-11.89-13.38-20.93-17.44"/>
      <path class="cls-2" d="M932.97,87.5l22.2-53.39,22.12,53.39h-44.32ZM973.05,6.24c-1.04-2.34-3.37-3.85-5.94-3.85h-23.45c-2.57,0-4.89,1.51-5.94,3.86l-56.38,126.51c-1.92,4.3,1.23,9.15,5.94,9.15h18.73c2.63,0,5-1.58,6-4.01l10.77-25.89h64.67l10.72,25.88c1.01,2.43,3.38,4.01,6.01,4.01h19.51c4.71,0,7.86-4.86,5.94-9.15l-56.57-126.51Z"/>
      <path class="cls-2" d="M1142.44,35.08c4.92,4.25,7.37,10.23,7.37,17.94s-2.46,13.52-7.37,17.84c-4.92,4.32-12.36,6.48-22.32,6.48h-42.36V28.7h42.36c9.97,0,17.41,2.13,22.32,6.38M1175.12,79.82c4.92-7.51,7.38-16.44,7.38-26.81,0-15.81-5.38-28.2-16.15-37.17-10.76-8.97-25.84-13.45-45.24-13.45h-69.14c-3.59,0-6.5,2.91-6.5,6.5v126.51c0,3.59,2.91,6.51,6.5,6.51h19.28c3.59,0,6.5-2.91,6.5-6.51v-32.36h44.16c.51,0,.97-.06,1.48-.06l24.88,36.11c1.21,1.76,3.22,2.81,5.35,2.81h19c5.25,0,8.34-5.91,5.34-10.22l-24.06-34.52c.09-.04.2-.06.29-.11,9.03-3.99,16.01-9.73,20.93-17.24"/>
      <path class="cls-2" d="M1323.78,131.37l-52.82-66.82,47.6-51.23c3.86-4.16.92-10.93-4.76-10.93h-18.16c-1.79,0-3.49.74-4.72,2.03l-59.86,63.08V8.9c0-3.59-2.91-6.51-6.51-6.51h-19.08c-3.59,0-6.51,2.91-6.51,6.51v126.51c0,3.59,2.91,6.5,6.5,6.5h19.09c3.59,0,6.5-2.91,6.5-6.5v-28.72l18.69-19.51,42.73,52.34c1.23,1.51,3.08,2.39,5.03,2.39h21.16c5.43,0,8.47-6.27,5.1-10.54"/>
      <path class="cls-2" d="M1354.17,13.16h1.23c1.45,0,2.61-.48,2.61-1.65,0-1.03-.75-1.72-2.4-1.72-.69,0-1.17.07-1.44.14v3.22ZM1354.1,19.54h-2.61v-11.25c1.03-.21,2.47-.34,4.32-.34,2.13,0,3.09.34,3.91.82.61.48,1.1,1.37,1.1,2.47,0,1.24-.96,2.19-2.33,2.61v.14c1.1.41,1.72,1.24,2.06,2.74.34,1.72.55,2.4.82,2.81h-2.81c-.34-.41-.55-1.44-.89-2.74-.21-1.24-.89-1.79-2.33-1.79h-1.24v4.53ZM1347.18,13.64c0,5,3.7,8.99,8.78,8.99s8.57-3.98,8.57-8.92-3.63-9.05-8.64-9.05-8.71,4.05-8.71,8.99M1367.41,13.64c0,6.38-5,11.38-11.52,11.38s-11.59-5-11.59-11.38,5.15-11.25,11.59-11.25,11.52,5.01,11.52,11.25"/>
    </g>
  </g>
</svg>