<?xml version="1.0" encoding="UTF-8"?>
<svg id="Layer_2" data-name="Layer 2" xmlns="http://www.w3.org/2000/svg" viewBox="0 0 675.66 240.76">
  <defs>
    <style>
      .cls-1 {
        fill: #9da29d;
      }

      .cls-2 {
        fill: #a71419;
      }
    </style>
  </defs>
  <g id="Layer_1-2" data-name="Layer 1">
    <g>
      <path class="cls-1" d="M182.54,95.72c-2.63-1.79-5.62-.84-5.62,5.02l-1.08-.24-1.31-30.47h2.03c1.79,16.37,12.79,29.64,24.38,29.64,12.67,0,19.36-12.19,13.15-24.14-3.11-6.21-9.8-9.92-16.73-13.86-10.04-5.74-20.67-11.71-20.2-25.81.48-10.4,8.96-18.28,19.72-18.28,4.9,0,9.68,1.43,15.06,4.54,2.27,1.2,5.5,0,5.5-5.98l1.08.24,1.31,25.45h-1.91c-1.91-13.5-9.8-21.51-21.03-21.51-7.29,0-13.27,5.62-13.74,12.91-.36,11.23,7.65,15.3,16.97,19.84,7.77,3.94,16.49,8.37,21.15,17.81,7.29,15.66-2.99,31.43-20.44,31.43-6.33,0-12.07-2.03-18.28-6.57Z"/>
      <path class="cls-1" d="M235.6,92.85V26.64c0-7.77-3.23-7.53-8.37-7.53l.12-1.2h26.41c18.88,0,30.12,8.96,30.12,23.78,0,16.73-11.23,26.65-30.12,26.65h-10.28v24.5c0,7.77,3.23,7.53,8.37,7.53l-.12,1.2h-24.38l-.12-1.2c5.14,0,8.37.24,8.37-7.53ZM253.76,65.6c13.98,0,22.11-9.08,21.87-23.9-.24-13.27-8.37-21.27-21.87-21.27h-10.28v45.17h10.28Z"/>
      <path class="cls-1" d="M316.5,100.38c2.63,0,8.01.48,7.17-4.54l-6.93-22.23h-26.89l-6.57,21.51.24-.24c-.84,3.11,1.2,5.5,6.81,5.5l-.24,1.2h-18.05l-.12-1.2c4.18,0,6.45-2.03,7.77-4.18l21.75-70.03c-.12-7.29-3.35-7.05-8.49-7.05l.12-1.2h14.46l24.86,78.16c1.91,3.94,5.38,4.18,7.89,4.3l-.12,1.2h-23.54l-.12-1.2ZM316.02,71.1l-12.79-41.11-12.55,41.11h25.33Z"/>
      <path class="cls-1" d="M366.33,103.49c-18.4-.36-32.03-17.81-32.03-42.78s13.62-43.98,32.03-43.98c16.73,0,19.84,14.82,19.84-.6l1.2.24,2.15,25.45h-1.79c-4.9-13.38-10.52-22.23-21.39-22.23-12.79,0-22.71,16.37-22.71,41.11s9.8,39.92,22.71,39.92c10.75,0,15.77-8.72,20.32-22.11h1.79l-1.08,25.45-1.2.24c0-13.5-7.65-.36-19.84-.72Z"/>
      <path class="cls-1" d="M438.39,101.58h-45.17l-.12-1.2c5.14,0,8.37.24,8.37-7.53V26.64c0-7.77-3.23-7.53-8.37-7.53l.12-1.2h48.16l3.47,17.93-1.43.12c-3.47-10.28-5.38-15.54-16.49-15.54h-17.57v38h11.83c5.14-.72,8.84-4.66,8.84-15.89h1.43v34.42h-1.43c0-12.91-4.66-16.01-10.64-16.01h-10.04v38.12h20.32c8.6-.84,10.16-5.98,13.74-15.42l1.43.12-3.47,17.93-2.99-.12Z"/>
      <path class="cls-1" d="M460.02,95.72c-2.63-1.79-5.62-.84-5.62,5.02l-1.08-.24-1.31-30.47h2.03c1.79,16.37,12.79,29.64,24.38,29.64,12.67,0,19.36-12.19,13.15-24.14-3.11-6.21-9.8-9.92-16.73-13.86-10.04-5.74-20.67-11.71-20.2-25.81.48-10.4,8.96-18.28,19.72-18.28,4.9,0,9.68,1.43,15.06,4.54,2.27,1.2,5.5,0,5.5-5.98l1.08.24,1.31,25.45h-1.91c-1.91-13.5-9.8-21.51-21.03-21.51-7.29,0-13.26,5.62-13.74,12.91-.36,11.23,7.65,15.3,16.97,19.84,7.77,3.94,16.49,8.37,21.15,17.81,7.29,15.66-2.99,31.43-20.44,31.43-6.33,0-12.07-2.03-18.29-6.57Z"/>
      <path class="cls-2" d="M4.78,169.17c0-25.34,13.74-42.9,33.7-42.9s33.7,17.57,33.7,42.9-13.74,42.9-33.7,42.9S4.78,194.51,4.78,169.17ZM42.07,208.73c14.58-1.2,24.14-16.85,21.87-41.95-2.15-24.86-14.46-38.96-29.16-37.64-14.82,1.2-24.5,16.97-22.35,42.42,2.15,24.62,14.7,38.48,29.64,37.17Z"/>
      <path class="cls-2" d="M73.49,209.92c5.14,0,8.37.24,8.37-7.53v-66.21c0-7.77-3.23-7.53-8.37-7.53l.12-1.2h48.16l3.47,17.93-1.43.12c-3.47-10.28-5.38-15.54-16.49-15.54h-17.45v38h12.07c5.98-.72,9.68-4.66,9.68-15.89h1.43v34.42h-1.43c0-12.91-4.66-16.01-11.83-16.01h-9.92v31.91c0,7.77,3.23,7.53,8.37,7.53l-.12,1.2h-24.5l-.12-1.2Z"/>
      <path class="cls-2" d="M179.13,202.4v-66.21c0-7.77-3.23-7.53-8.37-7.53l.12-1.2h24.5l.12,1.2c-5.14,0-8.37-.24-8.37,7.53v32.74h32.98v-32.74c0-7.77-3.23-7.53-8.37-7.53l.12-1.2h24.5l.12,1.2c-5.14,0-8.37-.24-8.37,7.53v66.21c0,7.77,3.23,7.53,8.37,7.53l-.12,1.2h-24.5l-.12-1.2c5.14,0,8.37.24,8.37-7.53v-30.95h-32.98v30.95c0,7.77,3.23,7.53,8.37,7.53l-.12,1.2h-24.5l-.12-1.2c5.14,0,8.37.24,8.37-7.53Z"/>
      <path class="cls-2" d="M285.97,209.92c2.63,0,8.01.48,7.17-4.54l-6.93-22.23h-26.89l-6.57,21.51.24-.24c-.84,3.11,1.2,5.5,6.81,5.5l-.24,1.2h-18.05l-.12-1.2c4.18,0,6.45-2.03,7.77-4.18l21.75-70.03c-.12-7.29-3.35-7.05-8.49-7.05l.12-1.2h14.46l24.86,78.16c1.91,3.94,5.38,4.18,7.89,4.3l-.12,1.2h-23.54l-.12-1.2ZM285.49,180.65l-12.79-41.11-12.55,41.11h25.33Z"/>
      <path class="cls-2" d="M352.77,187.46c-3.94-8.96-8.37-15.06-20.55-15.54h-3.71v30.47c0,7.77,5.5,7.53,10.64,7.53l-.12,1.2h-26.77l-.12-1.2c5.26,0,8.49.24,8.49-7.53v-66.09c0-7.89-3.23-7.65-8.49-7.65l.12-1.2h25.58c16.49,0,26.29,8.01,26.29,21.27,0,12.07-6.81,20.08-18.64,22.47,6.93,2.39,12.67,7.77,16.61,19.24,6.09,17.21,8.84,19,14.94,18.28v.72c-13.86,8.25-15.42-1.79-24.26-21.99ZM337.47,169.29c11.47,0,18.29-7.65,18.29-20.56,0-11.71-6.69-18.76-17.93-18.76h-9.32v39.32h8.96Z"/>
      <path class="cls-2" d="M393.04,137.14v67.52c.6,5.5,3.71,5.26,8.25,5.26l-.12,1.2h-19.24l-.12-1.2c5.14,0,8.37.24,8.37-7.53v-66.21c0-7.77-3.23-7.53-8.37-7.53l.12-1.2h14.7l26.41,70.39,23.9-70.39h16.97l.12,1.2c-5.14,0-8.37-.24-8.37,7.53v66.21c0,7.77,3.23,7.53,8.37,7.53l-.12,1.2h-24.5l-.12-1.2c5.26,0,8.49.24,8.49-7.53v-67.28l-23.9,69.07-2.15,6.57h-1.08l-27.61-73.62Z"/>
      <path class="cls-2" d="M465.22,169.17c0-25.34,13.74-42.9,33.7-42.9s33.7,17.57,33.7,42.9-13.74,42.9-33.7,42.9-33.7-17.57-33.7-42.9ZM502.51,208.73c14.58-1.2,24.14-16.85,21.87-41.95-2.15-24.86-14.46-38.96-29.16-37.64-14.82,1.2-24.5,16.97-22.35,42.42,2.15,24.62,14.7,38.48,29.64,37.17Z"/>
      <path class="cls-2" d="M543.97,134.28v68.12c0,7.77,3.11,7.53,8.37,7.53l-.12,1.2h-19.36l-.12-1.2c4.66,0,7.65.24,8.25-5.14v-70.99c-.6-5.38-3.58-5.14-8.25-5.14l.12-1.2h16.01l39.32,70.27v-63.94c-.6-5.38-3.58-5.14-8.25-5.14l.12-1.2h19.36l.12,1.2c-5.26,0-8.37-.24-8.37,7.53v74.93h-3.94l-43.26-76.84Z"/>
      <path class="cls-2" d="M634.68,202.4v-23.06l-19.6-46.37c-1.43-2.39-4.66-4.3-8.37-4.3l.24-1.2h23.06l.12,1.2c-4.06,0-7.65,1.43-7.05,3.7l17.45,43.14,18.17-42.78c.96-2.75-2.87-4.06-6.81-4.06l.24-1.2h18.52l.24,1.2c-4.78,0-7.05,2.03-8.37,4.42l-19.84,46.13v23.18c0,7.77,3.23,7.53,8.37,7.53l-.12,1.2h-24.5l-.12-1.2c5.14,0,8.37.24,8.37-7.53Z"/>
    </g>
  </g>
</svg>